<svg id="visual" viewBox="0 0 1920 1080" width="1920" height="1080" xmlns="http://www.w3.org/2000/svg" xmlns:xlink="http://www.w3.org/1999/xlink" version="1.1"><rect x="0" y="0" width="1920" height="1080" fill="#002233"></rect><path d="M0 743L45.7 756.7C91.3 770.3 182.7 797.7 274.2 824.8C365.7 852 457.3 879 548.8 860C640.3 841 731.7 776 823 763.7C914.3 751.3 1005.7 791.7 1097 816.5C1188.3 841.3 1279.7 850.7 1371.2 847C1462.7 843.3 1554.3 826.7 1645.8 813.7C1737.3 800.7 1828.7 791.3 1874.3 786.7L1920 782L1920 1081L1874.3 1081C1828.7 1081 1737.3 1081 1645.8 1081C1554.3 1081 1462.7 1081 1371.2 1081C1279.7 1081 1188.3 1081 1097 1081C1005.7 1081 914.3 1081 823 1081C731.7 1081 640.3 1081 548.8 1081C457.3 1081 365.7 1081 274.2 1081C182.7 1081 91.3 1081 45.7 1081L0 1081Z" fill="#1DB954" stroke-linecap="round" stroke-linejoin="miter"></path></svg>